<svg version="1.0" xmlns="http://www.w3.org/2000/svg" width="125.333" height="125.333" viewBox="0 0 94 94"><path d="M40.1 8.1C37.7 10.5 37 12 37 15.2c0 9 10.7 13.2 17.2 6.8 2.8-2.8 3-3.6 2.5-7.8-1-8.9-10.3-12.4-16.6-6.1zm11.4 2.4c3.1 3 3.2 6.2.3 9.2-4.1 4.4-10.5 2.2-11.5-3.9-.4-3-.1-3.8 2.2-5.6 3.6-2.8 6-2.8 9 .3zM8.1 12.4c4.7 5 26.6 26.9 29 29.1 1.9 1.6-3.8-4.4-12.6-13.3S8.3 12 8.1 12c-.2 0-.2.2 0 .4zm61.4 15.8C60.7 37.1 55 43.1 56.8 41.5c1.9-1.7 9.1-8.8 16-15.8C87.6 10.8 86.4 12 85.9 12c-.2 0-7.6 7.3-16.4 16.2zM4.6 50.4C1 58 .2 60.5 1.2 61.1c.9.6 1.8-.1 2.7-2.2 1.3-2.6 1.9-2.9 5.4-2.7 3 .1 4.2.7 5 2.5 1.1 2.4 3.8 3.2 3.6 1 0-.6-2-5.3-4.3-10.2l-4.3-9-4.7 9.9zm5.8.2c.9 2.3.8 2.4-1.3 2.4-1.4 0-1.8-.5-1.4-2 .6-2.4 1.9-2.6 2.7-.4zm67.3-7.9c-.3.5-.4 4.8-.3 9.7.1 8.7.2 8.9 2.6 9.2 10.3 1 16.6-5.9 12.8-14.1-.7-1.5-2.4-3.3-3.9-4.1-2.9-1.5-10.5-1.9-11.2-.7zm11.6 5.4C90.2 49.3 91 51 91 52s-.8 2.7-1.7 3.9c-2 2.4-8.2 3.7-8.4 1.8-.4-4.2-.4-10.4-.1-11.4.6-1.8 6.5-.6 8.5 1.8zm-44.3.5c-1.8 4.5-1.3 6.1 2 6.6 2.4.4 3 .1 2.5-.9-.3-.8-.5-1.8-.5-2.1 0-.4-.4-.1-.9.7-.5.7-1.4 1-2 .7-1.6-1-1.4-2.6.4-2.6.8 0 1.5-.2 1.5-.4s.3-1.1.6-1.9c.3-.8-.2-1.7-1.1-2.1-1.1-.4-1.9.2-2.5 2zM23.5 74.2C14.7 83.1 9 89.1 10.9 87.5c6.5-5.8 29.9-29.5 29-29.5-.2 0-7.6 7.3-16.4 16.2zM54 58.3c0 .5 28.8 29.3 30.8 30.8.9.7-5.5-6-14.3-14.9C55.3 58.8 54 57.5 54 58.3zm-8.7 23.3c-.3.8 0 2.1.7 2.7 1 1 1.2.8.6-.7-.4-1.2-.1-2.3.6-2.8 1.1-.6 1.1-.8 0-.8-.7 0-1.5.7-1.9 1.6zm3.7-.1c-1 1.3-.9 1.5.8 1.5 1.2 0 2.4.5 2.7 1 .4.6 1.1.8 1.6.4 1.6-.9-1-3.4-2.8-2.7-1.1.4-1.4.2-.9-.5 1-1.7.1-1.5-1.4.3zM40.7 83c1.9 2.2 3.3 2.6 3.3.9 0-.5-.4-.7-1-.4-.5.3-1-.1-1-.9 0-.9-.7-1.6-1.5-1.6-1.2 0-1.2.3.2 2z"/></svg>